<?xml version="1.0" standalone="no"?>
<!DOCTYPE svg PUBLIC "-//W3C//DTD SVG 20010904//EN"
 "http://www.w3.org/TR/2001/REC-SVG-20010904/DTD/svg10.dtd">
<svg version="1.0" xmlns="http://www.w3.org/2000/svg"
 width="501.000000pt" height="501.000000pt" viewBox="0 0 501.000000 501.000000"
 preserveAspectRatio="xMidYMid meet">
<metadata>
Created by potrace 1.11, written by Peter Selinger 2001-2013
</metadata>
<g transform="translate(0.000000,501.000000) scale(0.100000,-0.100000)"
fill="#000000" stroke="none">
<path d="M0 2510 l0 -2500 2505 0 2505 0 0 2500 0 2500 -2505 0 -2505 0 0
-2500z m830 -415 c18 -16 210 -255 427 -530 218 -275 398 -503 402 -507 3 -4
6 235 6 530 l0 537 178 3 177 2 0 -860 0 -860 -125 0 c-85 0 -136 5 -159 14
-41 17 -43 19 -501 600 l-360 455 -3 -534 -2 -535 -175 0 -175 0 0 861 0 861
139 -4 c140 -3 140 -3 171 -33z"/>
</g>
</svg>
